<svg version="1" xmlns="http://www.w3.org/2000/svg" width="341.333" height="341.333" viewBox="0 0 256.000000 256.000000"><path d="M141.9 1.9c-9.1 3.5-14.2 6.7-19.9 12.4-7 7.1-11.6 15.3-13.5 24.4-2.6 12-4.4 10.9 18.3 10.8 10.8-.1 20.2 0 20.8.2.7.3 1 8.2 1 24.3 0 13.2.3 24.2.6 24.5.7.7 13.4.7 16.7.1 18.1-3.8 32.9-16.9 38.1-33.5 5.5-17.5 1.6-35.7-10.4-48.8-6.4-7.1-11.5-10.5-20.4-13.7-6.1-2.2-8.9-2.6-17-2.5-6.6.1-11.2.6-14.3 1.8zM39.2 50.6c-9.5 1.9-16.9 6-24.3 13.4C3.9 74.9-.5 86.2.2 101.4c.6 10.3 2.5 16.7 7.4 24.3 8.2 12.8 22.5 21.5 37.5 22.8l4.5.4-.1-20c0-11 .2-20.4.5-20.9.3-.4 11-.7 23.8-.7 12.9.1 23.8-.1 24.4-.4 1.2-.7 1.4-8.3.4-15.2-3.9-28.1-31.1-46.9-59.4-41.1zM206.9 107.2c-.1.1-.3 9.1-.4 19.8-.2 10.7-.3 20-.4 20.6-.1.8-6.9 1.1-23.7 1-13 0-24 .2-24.6.5-1 .6-1.2 12.4-.3 17.2 2.6 13.3 10.6 24.9 22.4 32.5 12.4 8.1 30.5 9.9 44.2 4.6 29.3-11.5 41.2-47.1 24.3-72.9-9-13.8-20-20.6-37.6-23.1-2.1-.3-3.9-.4-3.9-.2zM92.7 157.1c-9.2 1-19.8 5.9-27.2 12.6-9.4 8.4-15.5 21.8-16 34.8-.5 14.1 4.3 26.4 14.5 36.6 10.4 10.5 21.5 15.1 35.7 14.8 26-.5 45.7-18.5 48.8-44.5l.7-5H129c-11.1.1-20.5-.1-20.9-.4-.5-.3-.8-11.2-.8-24.3 0-13-.2-23.9-.4-24.1-.8-.9-8.6-1.1-14.2-.5z"/></svg>