<svg xmlns="http://www.w3.org/2000/svg" xmlns:xlink="http://www.w3.org/1999/xlink" viewBox="0 0 357.16 168.92"><defs><style>.cls-1{fill:#0980dd;}.cls-2{fill:#fff;}.cls-3{font-size:101.76px;fill:#424242;font-family:Lato-Bold, Lato;font-weight:700;}.cls-4{letter-spacing:-0.01em;}.cls-5{fill:url(#linear-gradient);}.cls-6{fill:url(#linear-gradient-2);}.cls-7{fill:url(#linear-gradient-3);}.cls-8{fill:url(#linear-gradient-4);}</style><linearGradient id="linear-gradient" x1="330.22" y1="22.32" x2="338.09" y2="0.69" gradientUnits="userSpaceOnUse"><stop offset="0" stop-color="#424242"/><stop offset="0.04" stop-color="#404e57"/><stop offset="0.14" stop-color="#3b6783"/><stop offset="0.25" stop-color="#387ea9"/><stop offset="0.36" stop-color="#348fc8"/><stop offset="0.48" stop-color="#329de0"/><stop offset="0.6" stop-color="#30a7f2"/><stop offset="0.73" stop-color="#2fadfc"/><stop offset="0.89" stop-color="#2fafff"/></linearGradient><linearGradient id="linear-gradient-2" x1="341.72" y1="47.23" x2="349.59" y2="25.61" gradientUnits="userSpaceOnUse"><stop offset="0" stop-color="#424242"/><stop offset="0.26" stop-color="#535353"/><stop offset="0.54" stop-color="#5d5d5d"/><stop offset="0.89" stop-color="#606060"/></linearGradient><linearGradient id="linear-gradient-3" x1="316.81" y1="58.73" x2="324.68" y2="37.11" xlink:href="#linear-gradient"/><linearGradient id="linear-gradient-4" x1="305.3" y1="33.82" x2="313.17" y2="12.19" xlink:href="#linear-gradient-2"/></defs><title>LogoApp</title><g id="Layer_2" data-name="Layer 2"><g id="g4233"><circle id="path4218" class="cls-1" cx="242.59" cy="97.92" r="71"/><path id="rect4147" class="cls-2" d="M452.19,273.34c0,7.84,0,15.69,0,23.53,0,13,7.61,23.52,23.52,23.52h23.53V273.34h-7.8v24.4c0,8.25-7,14.93-15.73,14.93S460,306,460,297.74v-24.4Z" transform="translate(-260.73 -199.72)"/><path id="path4214" class="cls-2" d="M554.2,320.39c0-7.84,0-15.69,0-23.52,0-13-7.61-23.53-23.52-23.53-7.75,0-15.73,0-23.53,0v47.05h7.8V296c0-8.25,7-14.93,15.73-14.93s15.72,6.68,15.72,14.93v24.4Z" transform="translate(-260.73 -199.72)"/></g></g><g id="Layer_5" data-name="Layer 5"><text class="cls-3" transform="translate(0 121.22)">h<tspan class="cls-4" x="57.39" y="0">c</tspan><tspan x="105.52" y="0">e</tspan></text></g><g id="Layer_6" data-name="Layer 6"><circle class="cls-5" cx="334.15" cy="11.5" r="11.5"/><circle class="cls-6" cx="345.66" cy="36.42" r="11.5"/><circle class="cls-7" cx="320.74" cy="47.92" r="11.5"/><circle class="cls-8" cx="309.24" cy="23.01" r="11.5"/><rect class="cls-2" x="322.65" y="11.5" width="9.59" height="36.42"/><rect class="cls-2" x="583.38" y="211.22" width="9.59" height="36.42" transform="translate(556.88 -558.46) rotate(90)"/></g></svg>